<svg xmlns="http://www.w3.org/2000/svg" viewBox="0 0 1398 813" role="img" aria-label="SolidWorks-style railgun model screenshot">
  <defs>
    <linearGradient id="bg" x1="0" x2="1" y1="0" y2="1">
      <stop offset="0" stop-color="#fbfbfc"/>
      <stop offset="1" stop-color="#dce2ee"/>
    </linearGradient>
    <filter id="shadow" x="-20%" y="-40%" width="140%" height="200%">
      <feDropShadow dx="10" dy="20" stdDeviation="18" flood-color="#9aa3b4" flood-opacity="0.28"/>
    </filter>
  </defs>
  <rect width="1398" height="813" fill="url(#bg)"/>
  <g transform="translate(116 166)" filter="url(#shadow)" stroke="#080b12" stroke-linejoin="round" stroke-linecap="round">
    <polygon points="0,8 110,36 1130,456 1016,488 0,113" fill="#9aa0b1" stroke-width="1.4"/>
    <polygon points="0,32 1130,480 1130,535 0,163" fill="#0048bd" stroke-width="1.4"/>
    <polygon points="0,87 1130,535 1130,562 0,192" fill="#a1a5ae" stroke-width="1.4"/>
    <polygon points="0,32 0,87 1130,535 1130,480" fill="#0052cb" stroke-width="1.4"/>
    <polygon points="0,87 0,113 1016,488 1130,456 1130,480" fill="#8d929d" opacity="0.78" stroke-width="1.2"/>
    <polygon points="1130,456 1130,562 1016,594 1016,488" fill="#555b68" stroke-width="1.4"/>
    <polygon points="1016,488 1016,594 0,218 0,113" fill="#5e6470" stroke-width="1.4"/>
    <polygon points="1016,514 1130,482 1130,535 1016,567" fill="#0047b9" stroke-width="1.4"/>
    <g fill="#b2b6c1" stroke-width="1.1">
      <polygon points="5,10 110,38 69,51 0,31"/>
      <polygon points="45,46 151,76 110,89 0,50 0,32"/>
      <polygon points="89,63 195,93 154,106 45,67"/>
      <polygon points="132,81 239,111 198,124 89,84"/>
      <polygon points="176,99 283,129 242,142 132,101"/>
      <polygon points="219,117 327,147 286,160 176,119"/>
      <polygon points="263,135 371,165 330,178 219,137"/>
      <polygon points="306,153 415,183 374,196 263,155"/>
      <polygon points="350,171 459,201 418,214 306,173"/>
      <polygon points="393,189 503,219 462,232 350,191"/>
      <polygon points="437,207 547,237 506,250 393,209"/>
      <polygon points="480,225 591,255 550,268 437,227"/>
      <polygon points="524,243 635,273 594,286 480,245"/>
      <polygon points="567,261 679,291 638,304 524,263"/>
      <polygon points="611,279 723,309 682,322 567,281"/>
      <polygon points="654,297 767,327 726,340 611,299"/>
      <polygon points="698,315 811,345 770,358 654,317"/>
      <polygon points="741,333 855,363 814,376 698,335"/>
      <polygon points="785,351 899,381 858,394 741,353"/>
      <polygon points="828,369 943,399 902,412 785,371"/>
      <polygon points="872,387 987,417 946,430 828,389"/>
      <polygon points="915,405 1031,435 990,448 872,407"/>
      <polygon points="959,423 1075,453 1034,466 915,425"/>
    </g>
    <g fill="#8c929c" stroke-width="1">
      <polygon points="0,192 40,207 40,235 0,220"/>
      <polygon points="44,208 84,223 84,250 44,236"/>
      <polygon points="88,224 128,239 128,266 88,252"/>
      <polygon points="132,240 172,255 172,282 132,268"/>
      <polygon points="176,256 216,271 216,298 176,284"/>
      <polygon points="220,272 260,287 260,314 220,300"/>
      <polygon points="264,288 304,303 304,330 264,316"/>
      <polygon points="308,304 348,319 348,346 308,332"/>
      <polygon points="352,320 392,335 392,362 352,348"/>
      <polygon points="396,336 436,351 436,378 396,364"/>
      <polygon points="440,352 480,367 480,394 440,380"/>
      <polygon points="484,368 524,383 524,410 484,396"/>
      <polygon points="528,384 568,399 568,426 528,412"/>
      <polygon points="572,400 612,415 612,442 572,428"/>
      <polygon points="616,416 656,431 656,458 616,444"/>
      <polygon points="660,432 700,447 700,474 660,460"/>
      <polygon points="704,448 744,463 744,490 704,476"/>
      <polygon points="748,464 788,479 788,506 748,492"/>
      <polygon points="792,480 832,495 832,522 792,508"/>
      <polygon points="836,496 876,511 876,538 836,524"/>
      <polygon points="880,512 920,527 920,554 880,540"/>
      <polygon points="924,528 964,543 964,570 924,556"/>
      <polygon points="968,544 1012,561 1012,588 968,572"/>
    </g>
    <g transform="translate(1030 486)" stroke-width="1.2">
      <polygon points="0,0 92,-24 92,54 0,80" fill="#0f1521"/>
      <rect x="13" y="17" width="62" height="16" fill="#cad1dd" transform="skewY(-14)"/>
      <rect x="13" y="43" width="62" height="16" fill="#cad1dd" transform="skewY(-14)"/>
      <circle cx="8" cy="20" r="8" fill="#8b4d34"/>
      <circle cx="84" cy="-2" r="8" fill="#8b4d34"/>
      <circle cx="8" cy="48" r="8" fill="#8b4d34"/>
      <circle cx="84" cy="26" r="8" fill="#8b4d34"/>
    </g>
  </g>
  <g transform="translate(7 767)" stroke-width="1.2" fill="none">
    <path d="M0 40V12" stroke="#0a0"/>
    <path d="M0 40h28" stroke="#e33"/>
    <text x="-5" y="9" fill="#0a0" font-family="Arial" font-size="11" stroke="none">Y</text>
    <text x="31" y="45" fill="#e33" font-family="Arial" font-size="11" stroke="none">X</text>
  </g>
</svg>
